<svg width="26" height="25" viewBox="0 0 26 25" fill="none" xmlns="http://www.w3.org/2000/svg">
<path d="M24.67 0.383744C24.3506 0.250669 23.9989 0.215267 23.6594 0.282014C23.3199 0.348761 23.0078 0.51466 22.7625 0.758744L22.7262 0.796244L20.4275 3.44749C18.216 2.01249 15.6362 1.24882 13 1.24882C10.3638 1.24882 7.78395 2.01249 5.5725 3.44749L3.27375 0.801244L3.2375 0.763745C2.99283 0.519052 2.68112 0.352386 2.34175 0.284812C2.00238 0.217237 1.6506 0.251788 1.33086 0.384097C1.01113 0.516406 0.737794 0.740533 0.545408 1.02815C0.353023 1.31577 0.250222 1.65397 0.25 1.99999V13C0.25 19.4787 5.97 24.75 13 24.75C20.03 24.75 25.75 19.4787 25.75 13V1.99999C25.7499 1.654 25.6473 1.3158 25.455 1.02812C25.2628 0.740449 24.9896 0.516209 24.67 0.383744ZM24.25 13C24.25 18.4225 19.605 22.875 13.75 23.2262V20.31L15.53 18.53C15.6688 18.389 15.7464 18.1989 15.7457 18.0011C15.745 17.8032 15.6662 17.6136 15.5263 17.4737C15.3865 17.3337 15.197 17.2546 14.9992 17.2537C14.8013 17.2528 14.6111 17.3301 14.47 17.4687L13 18.9387L11.53 17.4687C11.3889 17.3301 11.1987 17.2528 11.0008 17.2537C10.803 17.2546 10.6135 17.3337 10.4737 17.4737C10.3338 17.6136 10.255 17.8032 10.2543 18.0011C10.2536 18.1989 10.3312 18.389 10.47 18.53L12.25 20.31V23.2262C6.395 22.875 1.75 18.4225 1.75 13V1.99999C1.74831 1.95023 1.76223 1.90118 1.7898 1.85972C1.81736 1.81825 1.85721 1.78644 1.90375 1.76874C1.93631 1.75539 1.97106 1.74819 2.00625 1.74749C2.06472 1.7479 2.12091 1.7702 2.16375 1.80999L4.88375 4.93499C5.00774 5.07774 5.18108 5.16838 5.36905 5.18878C5.55703 5.20918 5.74577 5.15782 5.8975 5.04499C6.62611 4.50853 7.4158 4.0604 8.25 3.70999V6.99999C8.25 7.19891 8.32902 7.38967 8.46967 7.53032C8.61032 7.67098 8.80109 7.74999 9 7.74999C9.19891 7.74999 9.38968 7.67098 9.53033 7.53032C9.67098 7.38967 9.75 7.19891 9.75 6.99999V3.18874C10.5667 2.96422 11.4045 2.82514 12.25 2.77374V6.99999C12.25 7.19891 12.329 7.38967 12.4697 7.53032C12.6103 7.67098 12.8011 7.74999 13 7.74999C13.1989 7.74999 13.3897 7.67098 13.5303 7.53032C13.671 7.38967 13.75 7.19891 13.75 6.99999V2.77374C14.5955 2.82514 15.4333 2.96422 16.25 3.18874V6.99999C16.25 7.19891 16.329 7.38967 16.4697 7.53032C16.6103 7.67098 16.8011 7.74999 17 7.74999C17.1989 7.74999 17.3897 7.67098 17.5303 7.53032C17.671 7.38967 17.75 7.19891 17.75 6.99999V3.70999C18.5845 4.06236 19.3742 4.5126 20.1025 5.05124C20.2542 5.16407 20.443 5.21543 20.6309 5.19503C20.8189 5.17463 20.9923 5.08399 21.1162 4.94124L23.8363 1.81624C23.8721 1.78512 23.9161 1.76487 23.9631 1.75785C24.0101 1.75083 24.0581 1.75735 24.1015 1.77662C24.1449 1.7959 24.182 1.82715 24.2083 1.86671C24.2345 1.90627 24.249 1.9525 24.25 1.99999V13ZM8.75 13.5C8.75 13.7472 8.67669 13.9889 8.53934 14.1945C8.40199 14.4 8.20676 14.5602 7.97835 14.6548C7.74995 14.7495 7.49861 14.7742 7.25614 14.726C7.01366 14.6777 6.79093 14.5587 6.61612 14.3839C6.4413 14.2091 6.32225 13.9863 6.27402 13.7439C6.22579 13.5014 6.25054 13.25 6.34515 13.0216C6.43976 12.7932 6.59998 12.598 6.80554 12.4607C7.0111 12.3233 7.25277 12.25 7.5 12.25C7.83152 12.25 8.14946 12.3817 8.38388 12.6161C8.6183 12.8505 8.75 13.1685 8.75 13.5ZM19.75 13.5C19.75 13.7472 19.6767 13.9889 19.5393 14.1945C19.402 14.4 19.2068 14.5602 18.9784 14.6548C18.7499 14.7495 18.4986 14.7742 18.2561 14.726C18.0137 14.6777 17.7909 14.5587 17.6161 14.3839C17.4413 14.2091 17.3223 13.9863 17.274 13.7439C17.2258 13.5014 17.2505 13.25 17.3451 13.0216C17.4398 12.7932 17.6 12.598 17.8055 12.4607C18.0111 12.3233 18.2528 12.25 18.5 12.25C18.8315 12.25 19.1495 12.3817 19.3839 12.6161C19.6183 12.8505 19.75 13.1685 19.75 13.5Z" fill="white"/>
</svg>
