<svg width="21" height="20" viewBox="0 0 21 20" fill="none" xmlns="http://www.w3.org/2000/svg">
<path d="M10.9648 19.1323L9.51484 17.8323C7.83151 16.3156 6.43984 15.0073 5.33984 13.9073C4.23984 12.8073 3.36484 11.8198 2.71484 10.9448C2.06484 10.0698 1.61068 9.26562 1.35234 8.53229C1.09401 7.79895 0.964844 7.04895 0.964844 6.28229C0.964844 4.71562 1.48984 3.40729 2.53984 2.35729C3.58984 1.30729 4.89818 0.782288 6.46484 0.782288C7.33151 0.782288 8.15651 0.965621 8.93984 1.33229C9.72318 1.69895 10.3982 2.21562 10.9648 2.88229C11.5315 2.21562 12.2065 1.69895 12.9898 1.33229C13.7732 0.965621 14.5982 0.782288 15.4648 0.782288C17.0315 0.782288 18.3398 1.30729 19.3898 2.35729C20.4398 3.40729 20.9648 4.71562 20.9648 6.28229C20.9648 7.04895 20.8357 7.79895 20.5773 8.53229C20.319 9.26562 19.8648 10.0698 19.2148 10.9448C18.5648 11.8198 17.6898 12.8073 16.5898 13.9073C15.4898 15.0073 14.0982 16.3156 12.4148 17.8323L10.9648 19.1323ZM10.9648 16.4323C12.5648 14.999 13.8815 13.7698 14.9148 12.7448C15.9482 11.7198 16.7648 10.8281 17.3648 10.0698C17.9648 9.31145 18.3815 8.63645 18.6148 8.04479C18.8482 7.45312 18.9648 6.86562 18.9648 6.28229C18.9648 5.28229 18.6315 4.44895 17.9648 3.78229C17.2982 3.11562 16.4648 2.78229 15.4648 2.78229C14.6815 2.78229 13.9565 3.00312 13.2898 3.44479C12.6232 3.88645 12.1648 4.44895 11.9148 5.13229H10.0148C9.76484 4.44895 9.30651 3.88645 8.63984 3.44479C7.97318 3.00312 7.24818 2.78229 6.46484 2.78229C5.46484 2.78229 4.63151 3.11562 3.96484 3.78229C3.29818 4.44895 2.96484 5.28229 2.96484 6.28229C2.96484 6.86562 3.08151 7.45312 3.31484 8.04479C3.54818 8.63645 3.96484 9.31145 4.56484 10.0698C5.16484 10.8281 5.98151 11.7198 7.01484 12.7448C8.04818 13.7698 9.36484 14.999 10.9648 16.4323Z" fill="#58585A"/>
</svg>
