<svg width="18" height="21" viewBox="0 0 18 21" fill="none" xmlns="http://www.w3.org/2000/svg">
<path d="M17.8158 5.94588L11.9553 0.181176C11.8377 0.0653121 11.6781 0.000144161 11.5116 0H1.46512C1.07654 0 0.703885 0.151838 0.429123 0.422111C0.15436 0.692384 0 1.05895 0 1.44118V19.5588C0 19.941 0.15436 20.3076 0.429123 20.5779C0.703885 20.8482 1.07654 21 1.46512 21H16.5349C16.9235 21 17.2961 20.8482 17.5709 20.5779C17.8456 20.3076 18 19.941 18 19.5588V6.38235C17.9999 6.2186 17.9336 6.0616 17.8158 5.94588ZM12.1395 2.10824L15.8567 5.76471H12.1395V2.10824ZM16.5349 19.7647H1.46512C1.40961 19.7647 1.35637 19.743 1.31712 19.7044C1.27787 19.6658 1.25581 19.6134 1.25581 19.5588V1.44118C1.25581 1.38657 1.27787 1.33421 1.31712 1.2956C1.35637 1.25699 1.40961 1.23529 1.46512 1.23529H10.8837V6.38235C10.8837 6.54616 10.9499 6.70326 11.0676 6.8191C11.1854 6.93493 11.3451 7 11.5116 7H16.7442V19.5588C16.7442 19.6134 16.7221 19.6658 16.6829 19.7044C16.6436 19.743 16.5904 19.7647 16.5349 19.7647Z" fill="#58585A"/>
</svg>
