<svg width="17" height="20" viewBox="0 0 17 20" fill="none" xmlns="http://www.w3.org/2000/svg">
<path d="M16.774 5.60962L11.3649 0.225C11.2931 0.153589 11.2078 0.0969631 11.114 0.0583569C11.0202 0.0197506 10.9197 -7.92199e-05 10.8182 2.37845e-07H1.54545C1.13557 2.37845e-07 0.742482 0.162088 0.452653 0.450605C0.162824 0.739123 0 1.13044 0 1.53846V18.4615C0 18.8696 0.162824 19.2609 0.452653 19.5494C0.742482 19.8379 1.13557 20 1.54545 20H15.4545C15.8644 20 16.2575 19.8379 16.5473 19.5494C16.8372 19.2609 17 18.8696 17 18.4615V6.15385C17.0001 6.0528 16.9802 5.95273 16.9414 5.85935C16.9026 5.76597 16.8457 5.68111 16.774 5.60962ZM10.8182 6.15385V1.92308L15.0682 6.15385H10.8182Z" fill="#177CDB"/>
</svg>
